<?xml version="1.0" encoding="UTF-8"?>
<svg width="104px" height="104px" viewBox="0 0 104 104" version="1.1" xmlns="http://www.w3.org/2000/svg" xmlns:xlink="http://www.w3.org/1999/xlink">
    <title>atlantsolia</title>
    <g id="atlantsolia" stroke="none" stroke-width="1" fill="none" fill-rule="evenodd">
        <g id="Group">
            <rect id="Rectangle-Copy-5" fill="#F6F6F6" x="0" y="0" width="104" height="104" rx="11"></rect>
            <g id="A" transform="translate(8.340643, 21.964719)" fill="#003176" fill-rule="nonzero">
                <path d="M0,46.0352813 L17.3058906,0 L31.6805313,0 L49.0178281,46.0352813 L36.1841875,46.0352813 L33.4455625,38.0371563 L15.0655781,38.0371563 L12.328,46.0352813 L0,46.0352813 Z M17.9947344,29.0654375 L30.5226875,29.0654375 L27.210375,19.3703281 C27.0317083,18.8755052 26.8256484,18.2636068 26.5921953,17.5346328 C26.3587422,16.8056589 26.1202292,16.0220729 25.8766563,15.183875 C25.6330833,14.3456771 25.3893359,13.5081771 25.1454141,12.671375 C24.9014922,11.8345729 24.6800781,11.0933854 24.4811719,10.4478125 L24.0372969,10.4478125 C23.8174531,11.2929896 23.5419505,12.2597786 23.2107891,13.3481797 C22.8796276,14.4365807 22.5475938,15.5125938 22.2146875,16.5762188 C21.8817813,17.6398438 21.5792344,18.5712135 21.3070469,19.3703281 L17.9947344,29.0654375 Z" id="Shape"></path>
            </g>
            <g id="O" transform="translate(48.602896, 21.160719)" fill="#E2091E" fill-rule="nonzero" stroke="#F6F6F6" stroke-width="2">
                <path d="M24.0927813,-1 C29.3322751,-1 33.8071693,-0.0797037721 37.5239504,1.73593821 C41.3104105,3.58561826 44.2118059,6.36319002 46.2279793,10.0688181 C48.2112866,13.71404 49.2211562,18.2947529 49.2211562,23.8216406 C49.2211562,29.3022753 48.2123827,33.8716307 46.2292435,37.5396791 C44.2128127,41.2693042 41.3107263,44.0583997 37.52388,45.9079009 C33.8071184,47.7231726 29.3322469,48.6432813 24.0927813,48.6432813 C18.8986156,48.6432813 14.440875,47.7237557 10.7134513,45.9083863 C6.91577593,44.0588023 4.0084103,41.2694276 1.99191278,37.5396791 C0.00877354617,33.8716307 -1,29.3022753 -1,23.8216406 C-1,18.2947529 0.00986969301,13.71404 1.99317699,10.0688181 C4.00941736,6.36306678 6.91609231,3.58521585 10.7133809,1.73545262 C14.4408243,-0.0802870571 18.8985876,-1 24.0927813,-1 Z M24.0927813,10.3726719 C22.298927,10.3726719 20.7171925,10.636886 19.35064,11.1798162 C18.0297452,11.7046067 16.9241651,12.4625402 16.038195,13.4596478 C15.140843,14.4695653 14.4732803,15.7101061 14.0248758,17.1751054 C13.5575275,18.7019966 13.328,20.4276748 13.328,22.3507813 L13.328,22.3507813 L13.328,25.3542656 L13.3336934,25.8683347 C13.3716699,27.5659831 13.599837,29.1044476 14.0243576,30.4827145 C14.4728025,31.9386553 15.1406867,33.1743807 16.0380915,34.1840403 C16.9240885,35.1808652 18.0297059,35.9386589 19.35064,36.463465 C20.7171925,37.0063953 22.298927,37.2706094 24.0927813,37.2706094 C25.8859614,37.2706094 27.4673449,37.0063866 28.8338756,36.463465 C30.1573007,35.9376693 31.2702167,35.1781403 32.1688159,34.1794877 C33.0775551,33.169566 33.7559256,31.9335642 34.2136883,30.4772191 C34.6897208,28.9627501 34.9235156,27.2546273 34.9235156,25.3542656 L34.9235156,25.3542656 L34.9235156,22.3507813 L34.917709,21.8317479 C34.8789768,20.1179391 34.6462628,18.5671913 34.2131515,17.1805754 C33.7554338,15.7151814 33.0773897,14.4743721 32.1687115,13.4642009 C31.2701397,12.4652652 30.1572613,11.7055963 28.8338756,11.1798162 C27.4673449,10.6368946 25.8859614,10.3726719 24.0927813,10.3726719 Z" id="Shape"></path>
            </g>
            <path d="M53.8942523,60.1194011 C54.6963502,59.3595192 55.9707314,59.1315806 57.6314392,59.4518394 C59.3693074,59.7869782 61.5480663,60.6923711 63.7437976,61.6155829 C64.219805,61.8157239 64.6967555,62.0162726 65.1700592,62.2109295 C67.5659447,63.1962917 73.1077561,66.0693012 78.6528299,69.2450089 L78.6528299,69.2450089 L79.596428,69.7883465 C83.389235,71.984242 87.0982002,74.2786354 89.7119565,76.1563197 C93.1292709,78.6112683 95.3653996,80.4726793 96.5913032,81.9448668 C97.2999582,82.7958905 97.6961905,83.5490888 97.8505282,84.2136948 C98.0476592,85.0625762 97.8977599,85.8119195 97.4327746,86.5029684 C96.5588186,87.801819 92.9062434,88.9031506 85.9353121,89.3025295 C84.7993022,89.3676138 83.7487129,89.4041133 82.7823577,89.4144342 C83.469767,89.1593259 84.2558062,88.5154745 85.169768,87.5983011 C86.3679078,86.3959512 87.0971076,85.4150873 87.0971076,84.590629 C87.0971076,83.2422113 85.0411655,81.2194478 81.4099633,78.7113853 C79.936744,77.6938364 77.5014263,76.4467353 74.9385168,75.3169395 L74.9385168,75.3169395 L74.2534105,75.0190468 C70.4105501,73.3711918 66.1784717,71.6505073 65.3351397,72.1993213 C65.2551947,72.4743897 65.2970763,72.7133931 65.3739632,72.9964572 C65.7169073,74.259028 66.8424873,76.1032627 68.6563931,78.5662174 L68.6563931,78.5662174 L65.5084786,77.8023217 C60.0985744,76.4937467 56.1328175,75.6565419 53.6106356,75.2939928 C46.9662486,74.3389004 42.2040681,73.7772314 37.2696911,73.7772314 C29.4807683,73.7772314 20.1807384,76.3720352 9.36191288,81.5179354 C3.62233575,84.2479259 -1.29049844,87.0993651 -5.3718466,90.0759352 C-3.31029816,87.8488177 1.26650077,84.4064985 8.38727154,79.776519 C16.0125466,74.8185071 21.2094885,71.9743025 23.9614947,71.1979486 L23.9614947,71.1979486 L24.6756874,70.9954371 L25.393961,70.7914997 C29.0634126,69.7535543 32.9294239,68.7559473 39.0696273,68.7559473 C45.98724,68.7559473 49.8310725,69.2205554 53.1284471,69.879851 C54.6422676,70.1825328 55.8219977,70.3240404 56.6038013,70.1550452 C57.0419815,68.3796534 55.9257101,67.0707481 54.976956,66.058115 C54.1973406,65.2260085 53.2512015,64.1392504 52.9774492,63.0368874 C52.8470548,62.5118071 52.8474461,61.9801447 53.0188436,61.4528559 C53.1641304,61.0058945 53.4351897,60.5543022 53.8942523,60.1194011 Z" id="Path-9" stroke="#F6F6F6" stroke-width="2" fill="#FFC307"></path>
        </g>
    </g>
</svg>