<?xml version="1.0" encoding="UTF-8"?>
<svg width="104px" height="104px" viewBox="0 0 104 104" version="1.1" xmlns="http://www.w3.org/2000/svg" xmlns:xlink="http://www.w3.org/1999/xlink">
    <title>costco</title>
    <g id="costco" stroke="none" stroke-width="1" fill="none" fill-rule="evenodd">
        <g id="Group-3">
            <rect id="Rectangle-Copy-2" fill="#F6F6F6" x="0" y="0" width="104" height="104" rx="11"></rect>
            <g id="logo_costco" transform="translate(7.000000, 40.000000)">
                <path d="M49.0274191,23.0323205 C49.3764376,23.057433 49.6584308,23.0453404 49.9636264,22.9231162 C50.3135904,22.7829014 50.5997659,22.5382675 50.7692382,22.2055356 C50.9205632,21.9085251 50.9791148,21.5631443 50.8448462,21.2466224 C50.7007219,20.9068427 50.3847615,20.7038281 50.0313063,20.6438102 C49.3344332,20.5255179 48.6297774,20.8388126 48.2602114,21.4690001 C47.8930092,22.0952556 48.276104,22.9782748 49.0274191,23.0323205 Z M49.1245202,24.9946966 C50.8302992,24.9150561 52.7739576,24.1418347 53.4231893,22.3221958 C53.4327903,22.2952657 53.4145339,22.287513 53.4436278,22.2788331 C53.4726854,22.270116 53.4817409,22.313961 53.477195,22.3401492 C53.3296523,23.1926401 53.1517063,24.0381945 53.0104188,24.8976962 C54.6343709,24.9058568 56.234357,24.8969543 57.8614367,24.9018878 C58.0067611,24.2423962 58.1193911,23.5903233 58.2352941,22.9210019 C57.4820151,22.8941088 56.7740499,22.9299786 56.0194253,22.903679 C56.2682878,21.4903661 56.5444622,20.1092878 56.7964886,18.6923027 C55.9167964,18.6821389 55.0363404,18.6835114 54.1570118,18.6914866 C53.9969586,19.5818132 53.828941,20.4560041 53.6674695,21.337762 C53.6614325,21.3708127 53.6407394,21.4325739 53.6168824,21.4102805 C53.5930617,21.3879871 53.6137912,21.4244875 53.615064,21.3847599 C53.6820165,19.3030158 51.5430648,18.4889912 49.871835,18.5928169 C48.1827851,18.6977184 46.3078248,19.5013567 45.6374999,21.2668015 C45.6113881,21.3356106 45.5687291,21.3236293 45.5817122,21.254338 C45.7437292,20.3890868 45.9001457,19.5584441 46.0593624,18.6927478 C45.2125099,18.6818051 44.374822,18.6836227 43.5255329,18.6914495 C43.368571,19.3997195 43.2760886,20.074568 43.1214542,20.7775336 C42.5684507,20.7730081 42.0390134,20.7895149 41.4888829,20.7695213 C41.6056952,20.0643672 41.7446916,19.4006098 41.86845,18.6898916 C40.1578342,18.6791714 38.4815129,18.6944912 36.7604233,18.6821018 C36.2282584,19.8911389 35.5670254,21.0322942 35.1652014,22.3022393 C35.1398897,22.3821765 35.0647545,22.3830668 35.0583538,22.2987525 C34.9661623,21.0822225 34.85706,19.9106502 34.7672688,18.69323 C34.0837789,18.6743492 33.4352017,18.6974958 32.737965,18.6814342 C32.1912531,19.9089068 31.4759781,21.0661979 31.0621165,22.3441554 C31.0454602,22.3956045 30.9775985,22.4023556 30.9739981,22.3475309 C30.8939534,21.1229886 30.8243461,19.9083504 30.7456469,18.685737 C29.8236956,18.6919688 28.9384028,18.6763152 28.0147059,18.6935267 C28.4751178,20.7652184 28.945749,22.8237047 29.4128889,24.9014797 C30.1705684,24.9061907 30.8738785,24.8897581 31.6487962,24.9089727 C32.1452846,23.8134799 32.808336,22.7626482 33.1422256,21.6171158 C33.1546632,21.5744208 33.1413164,21.5165915 33.2073233,21.5197445 C33.2701299,21.5227862 33.2677296,21.5683003 33.2700208,21.6114034 C33.3282451,22.7079348 33.4060714,23.7903705 33.4655322,24.8973994 C34.2364858,24.891687 35.0163131,24.9254053 35.7845755,24.8804475 C36.9014199,23.0052049 38.0123001,21.1789262 39.1390001,19.2936682 C39.1760949,19.2316473 39.2213723,19.2646608 39.208171,19.3355472 C38.8618073,21.1943572 38.5162802,23.0337672 38.1755899,24.8912789 C39.0330253,24.9134611 39.8466743,24.8949883 40.7024004,24.9014426 C40.8694725,24.1750708 40.9644279,23.4532615 41.1301544,22.7268155 C41.6858854,22.7306362 42.2029578,22.7114958 42.7575978,22.7381663 C42.6390399,23.4746276 42.4890242,24.1562642 42.3675933,24.8938384 C43.2163005,24.9086759 44.0392959,24.8980671 44.8943674,24.8997734 C45.0626396,24.1220266 45.1846524,23.3438347 45.3429963,22.5663104 C45.3555067,22.5049572 45.3389595,22.4298421 45.374345,22.3865907 C45.4004932,22.3546158 45.3975838,22.2551301 45.4223864,22.2754204 C45.4385336,22.2886259 45.4283507,22.2583944 45.4278779,22.2939674 C45.4002387,24.335984 47.4949675,25.0707761 49.1245202,24.9946966 L49.1245202,24.9946966 Z" id="Fill-1" fill="#1C4191"></path>
                <path d="M72.658805,22.7532602 C72.9893591,22.7289177 73.2500305,22.7620206 73.5890275,22.7398323 C73.5829968,22.1365834 73.4419521,21.5888412 73.4829242,20.9781962 C73.487968,20.9033017 73.3733121,20.8708809 73.3416967,20.9379126 C73.0744465,21.5047195 72.8467793,22.0437731 72.5662981,22.6097543 C72.5268977,22.6892803 72.5630087,22.7602972 72.658805,22.7532602 Z M68.9224911,24.0343293 C68.9620743,24.0016931 68.9787043,23.9203001 69.0141574,23.9743347 C69.0385725,24.0115666 68.9851005,24.0321033 68.9695669,24.0620467 C68.8200427,24.3502074 68.6034136,24.6143846 68.4719083,24.911557 C69.4088559,24.9144652 70.3248972,24.9144293 71.2584823,24.9124905 C71.3959085,24.6601255 71.4902795,24.4196087 71.624197,24.1647664 C72.3036896,24.1681413 72.9790156,24.1561136 73.6560959,24.1704032 C73.710701,24.4324621 73.6973604,24.6626388 73.7687051,24.9133522 C76.2665011,24.9135676 78.7516144,24.9138549 81.2506531,24.9128137 C81.3796364,24.2624595 81.5095335,23.6420847 81.6176471,22.9944951 C80.8603405,22.9788771 80.1585526,22.9995934 79.3944844,22.9831496 C79.6341397,21.6100601 79.9218578,20.287343 80.1694444,18.9078985 C79.2793167,18.8873618 78.4215354,18.9020463 77.5257061,18.900682 C77.1732222,20.6793363 76.8364547,22.4529282 76.4902574,24.2389069 C76.4815586,24.2836784 76.4732253,24.3403699 76.4257109,24.3264753 C76.3916102,24.3164941 76.4106159,24.2704301 76.4028309,24.2386915 C75.9641267,22.4564827 75.5477908,20.6926564 75.1037869,18.9022617 C74.1132577,18.8914189 73.1579622,18.9052776 72.1704665,18.895835 C71.3225171,20.2695708 70.472667,21.6361978 69.6260333,23.0153191 C69.5928098,23.0694255 69.5164212,23.0819917 69.5411653,23.0177246 C69.8036641,22.3359191 69.421831,21.6256781 68.7656204,21.3746415 C68.4490648,21.2535034 68.1496144,21.1827019 67.828417,21.1123313 C67.4915764,21.0385498 67.1129596,21.0710424 66.8770688,20.7956633 C67.0294805,20.3380745 67.5371171,20.3871185 67.9211797,20.4330749 C68.3060465,20.479103 68.6813737,20.6614205 69.0152904,20.8502006 C69.3687976,20.3293141 69.6790667,19.8607747 70.0235096,19.3278247 C68.5608333,18.5547527 66.6091972,18.6480656 65.2367252,19.5509643 C64.4901276,20.0421228 63.8811756,21.0275993 64.3330377,21.8599836 C64.5569036,22.2723701 65.036324,22.4242773 65.4540488,22.5429381 C65.8205311,22.647022 66.2445424,22.6567877 66.6151548,22.7512496 C66.6599645,22.7627028 66.7332098,22.770781 66.7436264,22.8067921 C66.7549934,22.8462141 66.8870469,22.8583853 66.8791522,22.9168361 C66.808575,23.4393741 66.1504273,23.4465548 65.715305,23.372127 C65.2698391,23.2959041 64.8033207,23.0740929 64.43216,22.7686268 C64.0934188,23.2246 63.7887784,23.7156149 63.4574202,24.1965768 C63.4180198,24.2537709 63.3580785,24.2790828 63.3712364,24.2056244 C63.43147,23.8688865 63.4987943,23.6008676 63.5418496,23.2790295 C62.763454,23.2616523 62.001798,23.2868206 61.2269841,23.266212 C61.2744254,23.0477757 61.2773494,22.8735366 61.3546151,22.6709696 C62.039115,22.6669484 62.7115171,22.6748112 63.3969307,22.6680614 C63.4863309,22.1556122 63.6063596,21.6588887 63.6828943,21.1390075 C62.9963477,21.125795 62.3409412,21.1428851 61.6580129,21.1311087 C61.6670772,20.9116672 61.7064411,20.7245746 61.7701835,20.5197457 C62.5203629,20.5134985 63.2641462,20.528542 64.0148008,20.5106262 C64.103141,19.9526874 64.2323437,19.447742 64.3115465,18.8994612 C62.6675845,18.8978097 61.040618,18.8985636 59.3976793,18.8988868 C59.0082805,20.9128161 58.6216959,22.8877902 58.2352941,24.908613 C59.9013321,24.920497 61.5607546,24.9089002 63.2248554,24.9147524 C63.2686052,24.8058933 63.2694093,24.691182 63.2972966,24.5848361 C63.3069457,24.5480351 63.3213097,24.4899793 63.3451034,24.4871789 C63.3651326,24.4848093 63.4143648,24.516117 63.4444086,24.5273548 C65.1718498,25.1744417 67.4055022,25.2854909 68.9224911,24.0343293 L68.9224911,24.0343293 Z" id="Fill-2" fill="#1C4191"></path>
                <path d="M0.573409011,24.9997817 C9.91450626,24.9995999 19.2529379,24.9992725 28.5937066,25 C28.6591408,25 28.6888271,24.9602037 28.6717018,24.896144 C28.5409429,24.4078209 28.4591867,23.9333937 28.3240096,23.4513274 C19.0322071,23.451764 9.74215725,23.4509273 0.450245195,23.4518003 C0.43337544,23.9534738 0.462404564,24.400109 0.441176471,24.8999636 C0.438049312,24.9765733 0.49983205,24.9997817 0.573409011,24.9997817" id="Fill-3" fill="#1C4191"></path>
                <path d="M81.944874,25 C83.5461842,24.9889108 85.136094,25.0055748 86.7361136,24.9919036 C86.8212214,24.4064472 86.9579532,23.8930413 87.0247058,23.3140879 C86.302114,23.3034097 85.6080946,23.3076588 84.8894822,23.3123513 C84.811401,23.3128686 84.7504202,23.2606597 84.776268,23.1752707 C84.8296844,22.9986915 84.8235182,22.860761 84.8806989,22.6896134 C85.5491214,22.6838124 86.2043512,22.6927171 86.8813418,22.6855121 C86.9922974,22.159211 87.0819582,21.6519016 87.1719416,21.114368 C86.4982133,21.0955241 85.85148,21.1182107 85.1783253,21.1031356 C85.1864632,20.8746062 85.2405608,20.7055277 85.2841544,20.4796587 C86.0212654,20.467096 86.7474422,20.4777004 87.4850551,20.4727123 C87.5916012,19.9183299 87.6899735,19.3797248 87.7941176,18.8074961 C86.1836299,18.8100456 84.5704175,18.797483 82.9621883,18.8140361 C82.5877355,20.8513653 82.2195922,22.8626454 81.8404789,24.8918828 C81.8272144,24.9628617 81.874142,25.0004758 81.944874,25" id="Fill-4" fill="#1C4191"></path>
                <path d="M0.797679591,22.7876106 C9.91177497,22.7865818 19.0194791,22.7874269 28.129689,22.7871329 C28.1985032,22.7871329 28.2499596,22.7496531 28.2315123,22.6803154 C28.1006381,22.1887048 28.0178431,21.7349782 27.8944495,21.2400972 C18.8290506,21.2396563 9.75101467,21.2375251 0.687213631,21.2404647 C0.644871978,21.7304218 0.695819953,22.1881903 0.662048309,22.6789191 C0.656819151,22.7548709 0.724725576,22.7876106 0.797679591,22.7876106" id="Fill-5" fill="#1C4191"></path>
                <path d="M0.577673976,20.3529449 C9.5282231,20.3514167 18.4887873,20.3530143 27.4509903,20.351903 C27.4957849,20.351903 27.5549648,20.3639891 27.5695686,20.3298839 C27.5796201,20.3064409 27.5681483,20.2748015 27.5615565,20.2461489 C27.4502619,19.7622849 27.3449399,19.2946748 27.2132874,18.805636 C18.3088076,18.8082061 9.37359059,18.8028228 0.452431113,18.8068863 C0.437135387,19.3197154 0.465796664,19.7533592 0.441176471,20.2528171 C0.437645244,20.3272097 0.503526122,20.3529449 0.577673976,20.3529449" id="Fill-6" fill="#1C4191"></path>
                <path d="M24.3999734,12.9969175 C25.1332583,13.0389108 25.8839435,12.8871113 26.5346221,12.5634221 C27.2493806,12.2078572 27.859083,11.5611679 28.1262274,10.812469 C28.3676527,10.1358984 28.3581352,9.32413703 27.9129551,8.72248714 C27.4539346,8.10212521 26.710442,7.81419198 25.9544167,7.76447455 C25.2212408,7.71624392 24.4729894,7.84715562 23.8238002,8.16877776 C23.0805255,8.53703493 22.4402362,9.18753194 22.1571445,9.96770768 C21.9014429,10.6725276 21.9099433,11.4970175 22.390905,12.105485 C22.8721572,12.7144239 23.6465273,12.9537276 24.3999734,12.9969175 Z M25.4193287,17.1642977 C27.5520885,16.9291281 29.6219673,16.2179983 31.3466362,14.9207394 C33.1270662,13.5815235 34.3509756,11.526935 34.4083713,9.29534371 C34.4090978,9.26622402 34.4651858,9.22811094 34.4748849,9.26169106 C34.4845841,9.29527118 34.4724874,9.30045688 34.4773188,9.33109965 C34.675879,10.5916597 35.8402494,11.2977126 36.9568142,11.6383006 C37.9819455,11.9510019 39.1286249,11.9822249 40.1586239,12.2511197 C40.1917899,12.2597867 40.2115515,12.3014536 40.245444,12.3086701 C40.301205,12.3206008 40.3354972,12.3800732 40.3777085,12.4182588 C40.4286381,12.4643136 40.4684882,12.5255266 40.4913011,12.5906561 C40.4985301,12.6113264 40.5081203,12.6304736 40.4980215,12.6570185 C40.4879591,12.6835635 40.516439,12.6922305 40.5140415,12.716926 C40.4580988,13.2984859 39.8509755,13.5059864 39.3530494,13.5943609 C38.8706347,13.679943 38.336019,13.6507145 37.8420888,13.5572269 C36.8156861,13.3628538 35.8685476,12.8708652 35.0336941,12.2154726 C34.5628312,12.8522257 34.1478746,13.5006556 33.7070173,14.1507537 C33.2830518,14.7760113 32.8671144,15.3578975 32.4500146,16.0374779 C36.0369205,17.5086209 40.6291235,17.8836231 44.1180572,15.8327334 C45.0464875,15.2869658 45.8507542,14.4761473 46.3020735,13.5291226 C46.7297807,12.6316703 46.9301571,11.5249042 46.4931504,10.5819773 C46.0126974,9.54538144 44.8574086,9.03758182 43.8080839,8.74917717 C42.8654863,8.49010979 41.8125653,8.40637707 40.8774509,8.11090101 C40.7793332,8.07985934 40.7035563,7.94481358 40.6626528,7.88472474 C40.652772,7.87021929 40.6418378,7.81883373 40.6176081,7.82804469 C40.6091077,7.30613852 41.1046362,7.06919196 41.5370295,6.9811076 C41.9582342,6.89534411 42.4096988,6.92508029 42.8446349,6.98491528 C43.7464743,7.10900942 44.5670516,7.46504575 45.3651791,7.94746083 C46.1349357,6.79746857 46.9067629,5.639317 47.6470588,4.49882582 C45.4634784,3.27413049 42.6473825,3.0729036 40.2171457,3.58465596 C37.5495885,4.14641586 34.6707569,5.88173937 34.417017,8.88690644 C34.4120403,8.9454722 34.3919518,8.92944368 34.3917701,8.87207461 C34.3853403,6.53655175 32.5128593,4.72463945 30.4552588,3.9810537 C28.5900067,3.30698534 26.4793333,3.16740662 24.4860669,3.47125959 C22.3762291,3.79291799 20.3590599,4.57914976 18.6970904,5.94614358 C17.0339947,7.31404399 15.9052606,9.32631285 15.8823529,11.4792846 C15.8716586,12.530676 16.151045,13.5566467 16.7654336,14.4156958 C17.439906,15.3587315 18.4133811,16.0400164 19.4603083,16.4701755 C21.3071429,17.228992 23.4106963,17.3857597 25.4193287,17.1642977 L25.4193287,17.1642977 Z" id="Fill-7" fill="#BE0024"></path>
                <path d="M66.1930811,17.2431424 C67.5047168,17.1767336 68.8338842,17.1042316 70.0887241,16.7146648 C70.2594402,15.8548686 70.4688358,15.0615537 70.6473682,14.2333842 C70.8312331,13.3803704 71.0625436,12.5455999 71.2104317,11.6954513 C70.11977,12.4450618 68.8197492,12.9599022 67.44646,12.9268611 C66.7117307,12.9091617 66.0043584,12.7121478 65.4313601,12.2584571 C64.8601516,11.8062172 64.5117432,11.0962488 64.6519613,10.3680371 C64.9382047,8.88125629 66.3767269,7.92473031 67.8192303,7.69166483 C69.2219218,7.46501898 70.7068668,8.031688 71.7459923,8.99340047 C72.0451654,7.29916022 72.2873602,5.6450699 72.5681615,3.96113008 C72.574809,3.92123403 72.5814199,3.87013081 72.5474885,3.85823453 C72.5208621,3.84891336 72.4852141,3.84891336 72.4550812,3.84013623 C69.9167662,3.10224062 67.0358137,3.12567048 64.5781085,4.04926408 C61.89154,5.05885182 59.3863163,7.202104 58.6524636,10.0086099 C58.3132959,11.3057756 58.3975217,12.7306087 59.0264392,13.9245888 C59.6972504,15.1980708 60.9246968,16.1488299 62.2541199,16.6546031 C63.4910262,17.1251226 64.8554034,17.3108569 66.1930811,17.2431424" id="Fill-8" fill="#BE0024"></path>
                <path d="M79.9552036,12.9959377 C80.7086739,13.0406607 81.4753686,12.8892989 82.1425889,12.5499771 C82.8226341,12.2041628 83.4030957,11.6033946 83.6765234,10.8991796 C83.9401781,10.220246 83.9613954,9.38980542 83.5311264,8.76680272 C83.0828009,8.11764814 82.3024093,7.81057194 81.5319724,7.76233058 C80.8086207,7.71699096 80.0604911,7.84296257 79.4225173,8.15965077 C78.7383667,8.49926268 78.1234632,9.07805017 77.8133048,9.78476794 C77.5103763,10.4751272 77.4453799,11.3142004 77.8775018,11.9672723 C78.331168,12.6529525 79.15879,12.9486756 79.9552036,12.9959377 Z M79.019751,17.2492296 C83.2709596,17.389601 88.067861,15.5398895 89.6475364,11.281048 C89.8366033,10.7713219 89.8813632,10.332398 89.9550063,9.79416231 C90.0263242,9.272938 90.0089943,8.77859103 89.9302648,8.2800728 C89.7512616,7.14669104 89.1873669,6.1229949 88.3184728,5.34754226 C86.7337111,3.9332362 84.6406413,3.40243616 82.5538567,3.32735374 C80.4765183,3.25263405 78.3892614,3.65561262 76.5268213,4.52762052 C74.461908,5.49440637 72.6105125,7.1507172 71.8514473,9.34791161 C71.7648703,9.59854904 71.6918812,9.83645511 71.6360403,10.0953988 C71.5815437,10.3480674 71.5323514,10.5981245 71.5058661,10.8529695 C71.4539126,11.3530474 71.4577637,11.8683231 71.5279554,12.3651366 C71.6819265,13.4553913 72.2345222,14.458739 73.0473574,15.2131541 C74.634408,16.6860389 76.9092785,17.1795516 79.019751,17.2492296 L79.019751,17.2492296 Z" id="Fill-9" fill="#BE0024"></path>
                <path d="M87.9820838,16.2073146 C87.9758156,16.0962997 87.9420848,16.0095338 87.875489,15.9311035 C87.6056773,15.6132144 87.1193513,15.6629248 86.8153587,15.8808247 C86.7338368,15.9392496 86.6443844,16.0258261 86.6030002,16.1226326 C86.5712433,16.1969709 86.5284738,16.2705136 86.5167338,16.3569385 C86.5043359,16.447948 86.4706051,16.5319101 86.5071756,16.6243594 C86.8094367,17.3885436 88.0278316,17.0132905 87.9820838,16.2073146 Z M87.5371421,17.1682188 C87.9249423,17.0127221 88.3492092,16.5622213 88.2072905,16.0652686 C87.9354356,15.1134578 86.423853,15.4271412 86.2779863,16.3457612 C86.2603937,16.4566625 86.2311303,16.5660102 86.2670775,16.6762674 C86.2997347,16.776446 86.3366862,16.8646517 86.3955593,16.9452796 C86.6582715,17.3051498 87.1736877,17.3139779 87.5371421,17.1682188 L87.5371421,17.1682188 Z" id="Fill-10" fill="#BE0024"></path>
                <path d="M53.2783645,17.0345792 C53.8632003,15.1200175 54.4434303,13.2000237 55.0235151,11.2948776 C55.3150989,10.3373432 55.6062475,9.37252986 55.901603,8.40941854 C55.942548,8.27589752 55.9807368,8.13861025 56.0272669,8.00737071 C56.0478663,7.94921103 56.0512754,7.88670567 56.0865991,7.83035669 C56.1208711,7.77567355 56.1925702,7.80109577 56.2525915,7.80247191 C56.4861124,7.80783158 56.7305133,7.79508425 56.9606976,7.81967356 C57.4249469,7.86928673 57.9151267,7.83057397 58.3862304,7.88152707 C58.6344392,7.90839785 58.892295,7.87848509 59.1411204,7.90137234 C59.2003801,7.90684065 59.262251,7.90394353 59.3208579,7.89887357 C59.3882413,7.89304312 59.3905986,7.79982828 59.41254,7.73859041 C59.4522519,7.62777557 59.4802135,7.50638625 59.5166252,7.38955988 C59.6684736,6.90197459 59.8180372,6.40877613 59.9652435,5.92282047 C60.1116519,5.43947222 60.2594748,4.94909845 60.4104165,4.45970246 C60.4785252,4.23883328 60.5432249,4.01818138 60.6072718,3.80339615 C60.6409273,3.69058954 60.7262989,3.52755412 60.5746318,3.54055494 C60.4284773,3.55304877 60.3279099,3.54627675 60.2092455,3.54624054 C58.2810208,3.5456249 56.3558426,3.54656647 54.42925,3.5461319 C52.4878243,3.54566112 50.5470152,3.54591461 48.6056983,3.54598704 C48.4723459,3.54598704 48.3384132,3.5463854 48.2061488,3.54558869 C48.1401435,3.54519033 48.0544817,3.53548498 48.052487,3.61124467 C48.0506374,3.68218789 48.0174172,3.72926609 48.0003356,3.78887434 C47.9308487,4.03165299 47.8566835,4.26287938 47.7850569,4.5022177 C47.642529,4.97846801 47.4952502,5.44805494 47.3533025,5.92394311 C47.2074381,6.41297696 47.0539577,6.8955285 46.9074767,7.39042902 C46.8718992,7.51062328 46.8311717,7.62679779 46.8023398,7.7393509 C46.7889574,7.79153528 46.7356817,7.87678303 46.7857296,7.89275341 C46.8368293,7.90904971 46.9029072,7.90365382 46.9615503,7.89883736 C47.1946723,7.87971637 47.4375137,7.90770979 47.67205,7.88438797 C48.1575878,7.8360785 48.6537516,7.86638961 49.1397971,7.82347603 C49.3747687,7.8027254 49.6127503,7.80428261 49.8506595,7.80247191 C49.9100642,7.80200112 49.9670029,7.7946859 50.0294178,7.8063468 C50.097055,7.81898549 50.0600993,7.90608016 50.0428001,7.96442091 C50.0083106,8.08066785 49.9681997,8.20252796 49.9318968,8.32293951 C49.6412559,9.28623189 49.3438332,10.2470979 49.0556948,11.2081089 C48.4722371,13.1540681 47.8565021,15.0946677 47.3013324,17.0318994 C49.3234151,17.0387076 51.2727832,17.0332393 53.2783645,17.0345792" id="Fill-11" fill="#BE0024"></path>
                <path d="M9.75716879,17.0181181 C11.3696787,16.9390591 12.9876068,16.8361649 14.532427,16.3847288 C14.7728373,15.3410464 15.0124422,14.3449241 15.2492649,13.3209698 C15.4870759,12.2928351 15.7429352,11.2811283 15.9624052,10.242873 C15.1756078,10.7243413 14.3951804,11.1558293 13.5282463,11.4164382 C12.7217533,11.6588958 11.8738558,11.7793178 11.0138773,11.7288608 C10.1349721,11.6773038 9.32254854,11.4148247 8.64144092,10.8657382 C7.97054716,10.3248656 7.59168219,9.45305232 7.74781892,8.60181053 C7.92423696,7.63982737 8.55760665,6.84578973 9.35765643,6.28317222 C10.0882226,5.76943493 10.8950084,5.47098327 11.7802104,5.33956039 C13.5533966,5.07627461 15.3163689,5.79180322 16.6271121,6.94336681 C16.9802776,4.86260244 17.2978228,2.840619 17.6449845,0.779069352 C17.6556743,0.715594744 17.6245202,0.664587709 17.5637129,0.647793156 C14.4407584,-0.214339425 10.9419043,-0.27469714 7.8652235,0.82450265 C6.15884846,1.43413024 4.55607647,2.32391149 3.19609435,3.55823775 C1.81923556,4.80785513 0.731879545,6.38360951 0.249521357,8.16100853 C-0.184732804,9.76111135 -0.0704765876,11.5456609 0.736785131,13.0045868 C1.62608728,14.6118035 3.21981689,15.7603602 4.913269,16.3610404 C6.43224334,16.8998595 8.11127157,17.0987906 9.75716879,17.0181181" id="Fill-12" fill="#BE0024"></path>
                <path d="M87.1893377,16.2865147 C87.2982917,16.2705699 87.366428,16.2980265 87.4827308,16.2669234 C87.6132121,16.2320664 87.5548609,16.0685785 87.4419929,16.0990738 C87.2938585,16.1390431 87.0987557,16.029789 87.0551421,16.1753658 C87.0320573,16.2523371 87.1045069,16.298956 87.1893377,16.2865147 Z M86.6911765,16.8141593 C86.7990921,16.7966414 86.8255318,16.8158038 86.9113611,16.8022901 C86.9384398,16.7423361 86.9666369,16.684134 86.9617244,16.6125611 C86.954735,16.5103856 87.0266255,16.4212591 87.1397332,16.4403857 C87.2132613,16.4527912 87.2484876,16.5082763 87.2678182,16.570125 C87.2840335,16.6219993 87.3161445,16.6581432 87.3337577,16.7094812 C87.355924,16.7741185 87.3977403,16.8230612 87.4813329,16.8065801 C87.5440774,16.7941747 87.5846556,16.8233472 87.6474799,16.7935311 C87.6331816,16.6577857 87.4999446,16.5846041 87.4872439,16.4358097 C87.5900873,16.4206156 87.7167743,16.3596249 87.7579117,16.2700337 C87.7959737,16.1871993 87.825968,16.0514539 87.7291954,16.0002946 C87.4762207,15.866587 87.1699672,15.9685838 86.8832839,15.9371589 C86.7921427,16.2310654 86.7486489,16.5243284 86.6911765,16.8141593 L86.6911765,16.8141593 Z" id="Fill-13" fill="#BE0024"></path>
            </g>
        </g>
    </g>
</svg>