<?xml version="1.0" encoding="UTF-8"?>
<svg width="104px" height="104px" viewBox="0 0 104 104" version="1.1" xmlns="http://www.w3.org/2000/svg" xmlns:xlink="http://www.w3.org/1999/xlink">
    <title>n1</title>
    <g id="n1" stroke="none" stroke-width="1" fill="none" fill-rule="evenodd">
        <g id="Group-3">
            <rect id="Rectangle-Copy" fill="#ED1B24" x="0" y="0" width="104" height="104" rx="11"></rect>
            <g id="Group" transform="translate(18.000000, 31.000000)" fill="#FFFFFF">
                <path d="M0,0.103007928 C0,25.1260442 0,37.6375623 0,37.6375623 C0,37.6375623 0.701498425,42 6.11288533,42 C9.72047659,42 12.0613127,42 13.1353936,42 L13.1353936,17.9807935 C13.1361243,17.9819086 16.5394251,23.17605 23.3452959,33.5632175 C26.0148845,37.6375623 30.0827639,42 34.4444025,42 C35.0747695,42 38.4159478,42 44.4679376,42 C44.598862,21.20699 44.598862,9.39622422 44.4679376,6.56770274 C44.2715511,2.32492053 41.0127776,0.103007928 38.1830566,0.103007928 C36.2965759,0.103007928 34.0019962,0.103007928 31.2993176,0.103007928 L31.2993176,22.9420891 C29.5553911,19.7303078 26.9040505,15.3820735 23.3452959,9.89738617 C18.007164,1.67035522 15.7275423,0.103007928 10.6475457,0.103007928 C7.26088136,0.103007928 3.71169945,0.103007928 0,0.103007928 Z" id="Path-4"></path>
                <path d="M49.6241952,2.44710933 L49.6241952,13.8121073 L55.161924,12.9813039 L55.161924,35.9574638 C55.8038902,39.6051924 57.5451453,41.4290567 60.3856892,41.4290567 C63.2262332,41.4290567 65.8907322,41.4290567 68.3791862,41.4290567 L68.3791862,0 L49.6241952,2.44710933 Z" id="Path-5"></path>
            </g>
        </g>
    </g>
</svg>