<?xml version="1.0" encoding="UTF-8"?>
<svg width="104px" height="104px" viewBox="0 0 104 104" version="1.1" xmlns="http://www.w3.org/2000/svg" xmlns:xlink="http://www.w3.org/1999/xlink">
    <title>ob</title>
    <g id="ob" stroke="none" stroke-width="1" fill="none" fill-rule="evenodd">
        <g id="Group">
            <rect id="Rectangle" fill="#FEE800" x="0" y="0" width="104" height="104" rx="11"></rect>
            <path d="M78.4824091,31 C85.4640311,31 92.4450096,35.7253802 92.4450096,45.4519199 C92.4450096,49.7786128 90.978081,52.8141275 88.0442238,54.558464 C92.0147413,56.7220945 94,60.752953 94,66.6510397 C94,77.9436485 82.963046,80 80.0419369,80 L80.0419369,80 L47,80 L56.5031527,54.5 L47,31 L47,31 Z M74.5709977,60 L70,60 L70,60 L70,67 L74.5709977,67 L74.5709977,67 C75.6092837,67 77,65.6202949 77,63.5 C77,61.3797051 75.6092837,60 74.5709977,60 Z M74.5709977,43 L70,43 L70,43 L70,50 L74.5709977,50 L74.5709977,50 C75.6092837,50 77,48.6202949 77,46.5 C77,44.3797051 75.6092837,43 74.5709977,43 Z" id="Combined-Shape" stroke="#FFFFFF" stroke-width="2" fill="#04883B"></path>
            <path d="M38,27 C45.7319865,27 52.7319865,30.1340068 57.7989899,35.2010101 C62.8659932,40.2680135 66,47.2680135 66,55 C66,62.7319865 62.8659932,69.7319865 57.7989899,74.7989899 C52.7319865,79.8659932 45.7319865,83 38,83 C30.2680135,83 23.2680135,79.8659932 18.2010101,74.7989899 C13.1340068,69.7319865 10,62.7319865 10,55 C10,47.2680135 13.1340068,40.2680135 18.2010101,35.2010101 C23.2680135,30.1340068 30.2680135,27 38,27 Z M37.5,43 C34.3243627,43 31.4493627,44.2871813 29.368272,46.368272 C27.2871813,48.4493627 26,51.3243627 26,54.5 C26,57.6756373 27.2871813,60.5506373 29.368272,62.631728 C31.4493627,64.7128187 34.3243627,66 37.5,66 C40.6756373,66 43.5506373,64.7128187 45.631728,62.631728 C47.7128187,60.5506373 49,57.6756373 49,54.5 C49,51.3243627 47.7128187,48.4493627 45.631728,46.368272 C43.5506373,44.2871813 40.6756373,43 37.5,43 Z" id="Combined-Shape" stroke="#FFFFFF" stroke-width="2" fill="#04883B"></path>
            <path d="M45.3940219,20.5232443 C51.0952401,21.1628233 56.4150066,23.0636401 61.0677618,25.9402231 L61.0677618,25.9402231 L47.4009016,46.9641391 C46.2222178,46.2479065 44.9045108,45.7376371 43.4977171,45.4834757 L43.4977171,45.4834757 Z" id="Combined-Shape" stroke="#FFFFFF" stroke-width="2" fill="#C82254" stroke-linejoin="round" transform="translate(52.112378, 33.642294) rotate(10.000000) translate(-52.112378, -33.642294) "></path>
        </g>
    </g>
</svg>