<?xml version="1.0" encoding="UTF-8"?>
<svg width="104px" height="104px" viewBox="0 0 104 104" version="1.1" xmlns="http://www.w3.org/2000/svg" xmlns:xlink="http://www.w3.org/1999/xlink">
    <title>olis</title>
    <g id="olis" stroke="none" stroke-width="1" fill="none" fill-rule="evenodd">
        <g id="Group">
            <rect id="Rectangle-Copy-3" fill="#009247" x="0" y="0" width="104" height="104" rx="11"></rect>
            <g id="Group-2" transform="translate(9.000000, 44.000000)" fill="#FEF200">
                <path d="M20.5152478,15.169185 C24.2555442,15.169185 26.1256923,16.5992484 26.1256923,19.4593752 L26.1256923,44.3808087 C26.1256923,47.4602696 24.2555442,49 20.5152478,49 L5.61044448,49 C1.95326586,49 0.0840412259,47.5279417 0.00277058987,44.583825 L7.14363751e-15,44.3808087 L7.14363751e-15,19.4593752 C7.14363751e-15,16.6642513 1.78610741,15.2349266 5.35832223,15.171401 L20.5152478,15.169185 Z M14.8732441,22.2504577 L10.7614448,22.2504577 L10.7614448,41.2045513 L14.8732441,41.2045513 L14.8732441,22.2504577 Z" id="Combined-Shape"></path>
                <rect id="Rectangle" x="29.6757216" y="0" width="11.5130381" height="48.6213705"></rect>
                <rect id="Rectangle" x="45.3005591" y="14.8336385" width="10.6906782" height="33.787732"></rect>
                <polygon id="Path-6" points="45.3005591 11.1252288 45.3005591 0 57.7307603 0 52.2138994 11.1252288"></polygon>
                <path d="M86,23.5793433 L86,15.169185 C74.476296,15.169185 67.4133521,15.169185 64.8111685,15.169185 C60.9078929,15.169185 59.8985926,18.0145884 59.8985926,19.3742641 C59.8985926,20.7339399 59.8985926,30.7475121 59.8985926,32.0845925 C59.8985926,33.4216729 61.9760618,36.1948721 66.5663326,36.1948721 C69.6265132,36.1948721 72.4486688,36.1948721 75.0327995,36.1948721 L75.0327995,40.2184501 L59.8985926,40.2184501 L59.8985926,48.6213705 C72.8573143,48.8737902 79.866884,49 80.9273018,49 C82.5179286,49 86,47.3479789 86,43.7801174 C86,41.401543 86,37.656311 86,32.5444212 C86,29.246745 84.3091006,27.5979069 80.9273018,27.5979069 C77.5455031,27.5979069 74.2886036,27.5979069 71.1566035,27.5979069 L71.1566035,23.5793433 L86,23.5793433 Z" id="Path-7"></path>
            </g>
        </g>
    </g>
</svg>