<?xml version="1.0" encoding="UTF-8"?>
<svg width="104px" height="104px" viewBox="0 0 104 104" version="1.1" xmlns="http://www.w3.org/2000/svg" xmlns:xlink="http://www.w3.org/1999/xlink">
    <title>orkan</title>
    <g id="orkan" stroke="none" stroke-width="1" fill="none" fill-rule="evenodd">
        <g id="Group">
            <rect id="Rectangle-Copy-4" fill="#FF0098" x="0" y="0" width="104" height="104" rx="11"></rect>
            <path d="M16.0702448,52.2253659 C16.0702448,55.8036309 15.0873641,64.5353101 20.4747653,72.2034935 C25.8621664,79.871677 35.0552245,88 45.7168574,88 C56.3784903,88 65.5969134,84.0059679 72.5128892,78.6231902 C79.428865,73.2404125 86.3658091,62.9093576 87.3862872,54.1942805 C88.4067652,45.4792034 86.9010735,33.8841259 84.0815511,29.7556387 C81.2620286,25.6271516 79.7672408,23.6650035 78.8186442,22.9286321 C77.8700476,22.1922607 76.9932409,22.24824 76.9932409,22.5874328 C76.9932409,22.9266256 78.4335349,24.3083608 78.8186442,24.8557743 C79.2037535,25.4031879 79.3372981,25.9491418 78.8186442,25.9491418 C78.2999903,25.9491418 75.9079533,23.4634519 74.515954,22.3490768 C73.1239548,21.2347017 69.3719883,18.9274152 65.5969134,17.8180496 C61.8218385,16.7086841 57.349007,16 54.601832,16 C51.854657,16 48.844766,15.9664676 48.1912665,16.697857 C47.5377669,17.4292465 47.3399718,19.4797989 49.8109564,21.9199184 C52.2819409,24.3600379 54.9649412,26.4413672 57.3187677,27.6982711 C59.6725942,28.9551751 66.7739882,33.2803272 68.4077371,36.0861414 C70.041486,38.8919556 73.7633953,46.4652711 69.2186324,54.1942805 C64.6738695,61.9232899 58.2208039,68.7071452 49.2379323,68.7071452 C40.2550607,68.7071452 33.5465097,61.576502 34.082528,52.8324713 C34.6185463,44.0884405 37.1895596,39.1568136 40.3748043,36.3067218 C43.560049,33.4566299 46.5672293,31.2350794 47.9025808,30.4953591 C49.2379323,29.7556387 51.4089468,29.4586172 51.4089468,28.4623697 C51.4089468,27.4661223 49.0563966,26.9775499 47.226125,25.2284205 C45.3958534,23.4792912 44.9494627,21.5137802 43.0182132,21.5137802 C41.0869637,21.5137802 31.2303354,25.3355568 27.8062498,30.4953591 C24.3821643,35.6551614 22.2792984,40.1808558 21.8896873,41.2045748 C21.5000762,42.2282938 21.1609315,44.5016448 20.4747653,44.5016448 C19.788599,44.5016448 19.7173346,42.154767 19.7173346,41.6796709 C19.7173346,41.2045748 19.7013922,40.8303494 19.0664957,40.6307868 C18.4315991,40.4312242 17.019629,44.1021763 16.731501,45.6048697 C16.443373,47.1075632 16.0702448,48.6471008 16.0702448,52.2253659 Z" id="Path-8" fill="#FFFFFF"></path>
        </g>
    </g>
</svg>